<svg xmlns="http://www.w3.org/2000/svg" xmlns:xlink="http://www.w3.org/1999/xlink" width="500" zoomAndPan="magnify" viewBox="0 0 375 374.999991" height="500" preserveAspectRatio="xMidYMid meet" version="1.0"><path fill="#004aad" d="M 81.539062 205.605469 C 81.539062 199.6875 88.6875 196.730469 92.867188 200.910156 L 125.164062 233.207031 C 127.65625 235.699219 127.753906 239.683594 125.445312 242.289062 C 125.355469 242.394531 125.261719 242.492188 125.164062 242.589844 L 92.867188 274.890625 C 88.6875 279.066406 81.539062 276.109375 81.539062 270.195312 L 81.539062 205.605469 M 107.230469 375.773438 L 282.09375 200.910156 C 286.273438 196.730469 293.421875 199.6875 293.421875 205.605469 L 293.421875 375.773438 L 374.914062 375.773438 L 374.914062 8.859375 C 374.914062 2.949219 367.765625 -0.0117188 363.585938 4.171875 L 192.167969 175.585938 C 192.085938 175.664062 192.007812 175.742188 191.925781 175.820312 L 191.917969 175.828125 C 189.3125 178.171875 185.292969 178.089844 182.789062 175.585938 L 154.65625 147.449219 L 11.375 4.171875 C 7.191406 -0.0117188 0.046875 2.949219 0.046875 8.859375 L 0.046875 375.773438 L 107.230469 375.773438 " fill-opacity="1" fill-rule="nonzero"/><path fill="#eaeaea" d="M 126.589844 235.328125 C 126.269531 234.558594 125.792969 233.835938 125.164062 233.207031 L 97.027344 205.070312 L 125.164062 233.207031 C 125.792969 233.835938 126.269531 234.558594 126.589844 235.328125 M 187.480469 177.527344 C 187.492188 177.527344 187.503906 177.527344 187.519531 177.527344 C 187.503906 177.527344 187.492188 177.527344 187.480469 177.527344 M 187.457031 177.527344 C 185.765625 177.519531 184.078125 176.871094 182.789062 175.585938 C 184.078125 176.871094 185.765625 177.519531 187.457031 177.527344 M 191.308594 176.3125 C 191.515625 176.164062 191.722656 176 191.917969 175.828125 C 191.722656 176 191.515625 176.164062 191.308594 176.3125 " fill-opacity="1" fill-rule="nonzero"/><path fill="#004aad" d="M 125.445312 242.289062 C 127.171875 240.339844 127.550781 237.621094 126.589844 235.328125 C 126.269531 234.558594 125.792969 233.835938 125.164062 233.207031 L 97.027344 205.070312 L 154.65625 147.449219 L 182.789062 175.585938 C 184.078125 176.871094 185.765625 177.519531 187.457031 177.527344 C 187.464844 177.527344 187.472656 177.527344 187.480469 177.527344 C 187.492188 177.527344 187.503906 177.527344 187.519531 177.527344 C 188.847656 177.519531 190.175781 177.113281 191.308594 176.3125 C 191.515625 176.164062 191.722656 176 191.917969 175.828125 L 125.445312 242.289062 " fill-opacity="1" fill-rule="nonzero"/></svg>