<svg xmlns="http://www.w3.org/2000/svg" xmlns:xlink="http://www.w3.org/1999/xlink" width="140" zoomAndPan="magnify" viewBox="0 0 104.88 37.5" height="50" preserveAspectRatio="xMidYMid meet" version="1.0"><defs><g/><clipPath id="0969d53009"><path d="M 0.628906 0 L 104.128906 0 L 104.128906 37.007812 L 0.628906 37.007812 Z M 0.628906 0 " clip-rule="nonzero"/></clipPath></defs><g clip-path="url(#0969d53009)"><path fill="#ffffff" d="M 0.628906 0 L 104.25 0 L 104.25 37.007812 L 0.628906 37.007812 Z M 0.628906 0 " fill-opacity="1" fill-rule="nonzero"/><path fill="#ffffff" d="M 0.628906 0 L 104.25 0 L 104.25 37.007812 L 0.628906 37.007812 Z M 0.628906 0 " fill-opacity="1" fill-rule="nonzero"/></g><path fill="#004aad" d="M 31.566406 34.800781 L 3.808594 35.296875 C 3.234375 35.308594 2.769531 34.847656 2.789062 34.289062 L 3.734375 2.640625 C 3.75 2.117188 4.183594 1.695312 4.71875 1.683594 L 29.402344 1.242188 C 29.9375 1.230469 30.382812 1.636719 30.417969 2.160156 L 32.546875 33.75 C 32.585938 34.3125 32.136719 34.789062 31.566406 34.800781 Z M 31.566406 34.800781 " fill-opacity="1" fill-rule="evenodd"/><path fill="#000000" d="M 31.589844 34.539062 L 4.375 34.539062 C 3.8125 34.539062 3.367188 34.078125 3.394531 33.53125 L 4.902344 2.53125 C 4.925781 2.015625 5.359375 1.613281 5.882812 1.613281 L 30.082031 1.613281 C 30.605469 1.613281 31.035156 2.015625 31.0625 2.53125 L 32.566406 33.53125 C 32.59375 34.078125 32.148438 34.539062 31.589844 34.539062 Z M 31.589844 34.539062 " fill-opacity="1" fill-rule="evenodd"/><path fill="#004aad" d="M 17.980469 17.605469 C 13.417969 17.605469 9.648438 14.214844 9.15625 9.867188 C 9.097656 9.355469 9.503906 8.902344 10.03125 8.902344 C 10.480469 8.902344 10.855469 9.238281 10.90625 9.679688 C 11.300781 13.164062 14.324219 15.878906 17.980469 15.878906 C 21.636719 15.878906 24.660156 13.164062 25.054688 9.679688 C 25.105469 9.238281 25.476562 8.902344 25.929688 8.902344 C 26.457031 8.902344 26.863281 9.355469 26.804688 9.867188 C 26.3125 14.214844 22.546875 17.605469 17.980469 17.605469 Z M 17.980469 17.605469 " fill-opacity="1" fill-rule="nonzero"/><g fill="#000000" fill-opacity="1"><g transform="translate(37.529506, 14.6669)"><g><path d="M 4.96875 -4.9375 L 2.828125 -2.765625 L 2.828125 0 L 1.71875 0 L 1.71875 -10.515625 L 2.828125 -10.515625 L 2.828125 -4.15625 L 9 -10.515625 L 10.28125 -10.515625 L 5.734375 -5.75 L 10.59375 0 L 9.28125 0 Z M 4.96875 -4.9375 "/></g></g></g><g fill="#000000" fill-opacity="1"><g transform="translate(47.173398, 14.6669)"><g><path d="M 4.25 -7.96875 C 5.28125 -7.96875 6.070312 -7.707031 6.625 -7.1875 C 7.175781 -6.675781 7.453125 -5.914062 7.453125 -4.90625 L 7.453125 0 L 6.4375 0 L 6.4375 -1.234375 C 6.195312 -0.816406 5.84375 -0.492188 5.375 -0.265625 C 4.90625 -0.0351562 4.351562 0.078125 3.71875 0.078125 C 2.832031 0.078125 2.128906 -0.128906 1.609375 -0.546875 C 1.085938 -0.972656 0.828125 -1.53125 0.828125 -2.21875 C 0.828125 -2.894531 1.066406 -3.4375 1.546875 -3.84375 C 2.035156 -4.257812 2.8125 -4.46875 3.875 -4.46875 L 6.390625 -4.46875 L 6.390625 -4.9375 C 6.390625 -5.625 6.195312 -6.144531 5.8125 -6.5 C 5.4375 -6.851562 4.882812 -7.03125 4.15625 -7.03125 C 3.644531 -7.03125 3.160156 -6.945312 2.703125 -6.78125 C 2.242188 -6.613281 1.847656 -6.390625 1.515625 -6.109375 L 1.03125 -6.90625 C 1.4375 -7.238281 1.921875 -7.5 2.484375 -7.6875 C 3.046875 -7.875 3.632812 -7.96875 4.25 -7.96875 Z M 3.875 -0.765625 C 4.476562 -0.765625 4.992188 -0.898438 5.421875 -1.171875 C 5.859375 -1.453125 6.179688 -1.851562 6.390625 -2.375 L 6.390625 -3.671875 L 3.90625 -3.671875 C 2.550781 -3.671875 1.875 -3.195312 1.875 -2.25 C 1.875 -1.789062 2.050781 -1.425781 2.40625 -1.15625 C 2.757812 -0.894531 3.25 -0.765625 3.875 -0.765625 Z M 3.875 -0.765625 "/></g></g></g><g fill="#000000" fill-opacity="1"><g transform="translate(54.999589, 14.6669)"><g><path d="M 2.515625 -6.359375 C 2.765625 -6.890625 3.132812 -7.289062 3.625 -7.5625 C 4.125 -7.832031 4.738281 -7.96875 5.46875 -7.96875 L 5.46875 -6.921875 L 5.21875 -6.9375 C 4.382812 -6.9375 3.734375 -6.679688 3.265625 -6.171875 C 2.796875 -5.660156 2.5625 -4.945312 2.5625 -4.03125 L 2.5625 0 L 1.484375 0 L 1.484375 -7.90625 L 2.515625 -7.90625 Z M 2.515625 -6.359375 "/></g></g></g><g fill="#000000" fill-opacity="1"><g transform="translate(59.986569, 14.6669)"><g><path d="M 5.65625 -0.484375 C 5.445312 -0.296875 5.195312 -0.15625 4.90625 -0.0625 C 4.613281 0.03125 4.304688 0.078125 3.984375 0.078125 C 3.242188 0.078125 2.671875 -0.117188 2.265625 -0.515625 C 1.867188 -0.921875 1.671875 -1.488281 1.671875 -2.21875 L 1.671875 -7 L 0.25 -7 L 0.25 -7.90625 L 1.671875 -7.90625 L 1.671875 -9.640625 L 2.734375 -9.640625 L 2.734375 -7.90625 L 5.140625 -7.90625 L 5.140625 -7 L 2.734375 -7 L 2.734375 -2.28125 C 2.734375 -1.8125 2.847656 -1.453125 3.078125 -1.203125 C 3.316406 -0.960938 3.660156 -0.84375 4.109375 -0.84375 C 4.328125 -0.84375 4.535156 -0.875 4.734375 -0.9375 C 4.941406 -1.007812 5.125 -1.113281 5.28125 -1.25 Z M 5.65625 -0.484375 "/></g></g></g><g fill="#004aad" fill-opacity="1"><g transform="translate(37.529506, 30.647343)"><g><path d="M 11.078125 0 L 11.0625 -6.96875 L 7.609375 -1.203125 L 6.734375 -1.203125 L 3.28125 -6.890625 L 3.28125 0 L 1.40625 0 L 1.40625 -10.515625 L 3.015625 -10.515625 L 7.203125 -3.546875 L 11.296875 -10.515625 L 12.90625 -10.515625 L 12.921875 0 Z M 11.078125 0 "/></g></g></g><g fill="#004aad" fill-opacity="1"><g transform="translate(50.838844, 30.647343)"><g><path d="M 8.78125 -3.96875 C 8.78125 -3.832031 8.769531 -3.644531 8.75 -3.40625 L 2.453125 -3.40625 C 2.554688 -2.820312 2.84375 -2.351562 3.3125 -2 C 3.78125 -1.65625 4.359375 -1.484375 5.046875 -1.484375 C 5.929688 -1.484375 6.660156 -1.773438 7.234375 -2.359375 L 8.234375 -1.203125 C 7.878906 -0.773438 7.425781 -0.445312 6.875 -0.21875 C 6.320312 0 5.695312 0.109375 5 0.109375 C 4.125 0.109375 3.347656 -0.0664062 2.671875 -0.421875 C 2.003906 -0.773438 1.488281 -1.265625 1.125 -1.890625 C 0.757812 -2.515625 0.578125 -3.222656 0.578125 -4.015625 C 0.578125 -4.796875 0.753906 -5.5 1.109375 -6.125 C 1.460938 -6.75 1.953125 -7.234375 2.578125 -7.578125 C 3.210938 -7.929688 3.925781 -8.109375 4.71875 -8.109375 C 5.5 -8.109375 6.195312 -7.9375 6.8125 -7.59375 C 7.425781 -7.25 7.90625 -6.765625 8.25 -6.140625 C 8.601562 -5.515625 8.78125 -4.789062 8.78125 -3.96875 Z M 4.71875 -6.609375 C 4.113281 -6.609375 3.601562 -6.429688 3.1875 -6.078125 C 2.78125 -5.722656 2.53125 -5.25 2.4375 -4.65625 L 6.984375 -4.65625 C 6.910156 -5.238281 6.664062 -5.707031 6.25 -6.0625 C 5.84375 -6.425781 5.332031 -6.609375 4.71875 -6.609375 Z M 4.71875 -6.609375 "/></g></g></g><g fill="#004aad" fill-opacity="1"><g transform="translate(59.145755, 30.647343)"><g><path d="M 3.015625 -6.859375 C 3.554688 -7.691406 4.507812 -8.109375 5.875 -8.109375 L 5.875 -6.328125 C 5.71875 -6.359375 5.570312 -6.375 5.4375 -6.375 C 4.707031 -6.375 4.132812 -6.160156 3.71875 -5.734375 C 3.3125 -5.304688 3.109375 -4.691406 3.109375 -3.890625 L 3.109375 0 L 1.234375 0 L 1.234375 -8.03125 L 3.015625 -8.03125 Z M 3.015625 -6.859375 "/></g></g></g><g fill="#004aad" fill-opacity="1"><g transform="translate(64.418156, 30.647343)"><g><path d="M 4.921875 0.109375 C 4.085938 0.109375 3.335938 -0.0664062 2.671875 -0.421875 C 2.015625 -0.773438 1.5 -1.265625 1.125 -1.890625 C 0.757812 -2.515625 0.578125 -3.222656 0.578125 -4.015625 C 0.578125 -4.804688 0.757812 -5.507812 1.125 -6.125 C 1.5 -6.75 2.015625 -7.234375 2.671875 -7.578125 C 3.328125 -7.929688 4.078125 -8.109375 4.921875 -8.109375 C 5.710938 -8.109375 6.40625 -7.945312 7 -7.625 C 7.59375 -7.3125 8.039062 -6.851562 8.34375 -6.25 L 6.90625 -5.40625 C 6.664062 -5.78125 6.375 -6.0625 6.03125 -6.25 C 5.6875 -6.4375 5.3125 -6.53125 4.90625 -6.53125 C 4.195312 -6.53125 3.613281 -6.300781 3.15625 -5.84375 C 2.695312 -5.382812 2.46875 -4.773438 2.46875 -4.015625 C 2.46875 -3.253906 2.691406 -2.644531 3.140625 -2.1875 C 3.597656 -1.726562 4.1875 -1.5 4.90625 -1.5 C 5.3125 -1.5 5.6875 -1.59375 6.03125 -1.78125 C 6.375 -1.96875 6.664062 -2.242188 6.90625 -2.609375 L 8.34375 -1.78125 C 8.03125 -1.175781 7.578125 -0.707031 6.984375 -0.375 C 6.390625 -0.0507812 5.703125 0.109375 4.921875 0.109375 Z M 4.921875 0.109375 "/></g></g></g><g fill="#004aad" fill-opacity="1"><g transform="translate(72.109153, 30.647343)"><g><path d="M 4.296875 -8.109375 C 5.484375 -8.109375 6.390625 -7.828125 7.015625 -7.265625 C 7.640625 -6.703125 7.953125 -5.847656 7.953125 -4.703125 L 7.953125 0 L 6.171875 0 L 6.171875 -0.984375 C 5.941406 -0.628906 5.613281 -0.359375 5.1875 -0.171875 C 4.757812 0.015625 4.25 0.109375 3.65625 0.109375 C 3.050781 0.109375 2.519531 0.00390625 2.0625 -0.203125 C 1.613281 -0.410156 1.265625 -0.695312 1.015625 -1.0625 C 0.773438 -1.425781 0.65625 -1.835938 0.65625 -2.296875 C 0.65625 -3.015625 0.921875 -3.59375 1.453125 -4.03125 C 1.992188 -4.46875 2.84375 -4.6875 4 -4.6875 L 6.078125 -4.6875 L 6.078125 -4.8125 C 6.078125 -5.375 5.90625 -5.800781 5.5625 -6.09375 C 5.226562 -6.394531 4.734375 -6.546875 4.078125 -6.546875 C 3.617188 -6.546875 3.171875 -6.472656 2.734375 -6.328125 C 2.304688 -6.191406 1.941406 -6 1.640625 -5.75 L 0.90625 -7.125 C 1.320312 -7.445312 1.828125 -7.691406 2.421875 -7.859375 C 3.015625 -8.023438 3.640625 -8.109375 4.296875 -8.109375 Z M 4.046875 -1.265625 C 4.515625 -1.265625 4.929688 -1.367188 5.296875 -1.578125 C 5.660156 -1.796875 5.921875 -2.109375 6.078125 -2.515625 L 6.078125 -3.4375 L 4.140625 -3.4375 C 3.054688 -3.4375 2.515625 -3.082031 2.515625 -2.375 C 2.515625 -2.03125 2.648438 -1.757812 2.921875 -1.5625 C 3.191406 -1.363281 3.566406 -1.265625 4.046875 -1.265625 Z M 4.046875 -1.265625 "/></g></g></g><g fill="#004aad" fill-opacity="1"><g transform="translate(80.190724, 30.647343)"><g><path d="M 6.0625 -0.4375 C 5.84375 -0.257812 5.570312 -0.125 5.25 -0.03125 C 4.9375 0.0625 4.601562 0.109375 4.25 0.109375 C 3.375 0.109375 2.691406 -0.117188 2.203125 -0.578125 C 1.722656 -1.046875 1.484375 -1.71875 1.484375 -2.59375 L 1.484375 -6.46875 L 0.171875 -6.46875 L 0.171875 -7.96875 L 1.484375 -7.96875 L 1.484375 -9.796875 L 3.359375 -9.796875 L 3.359375 -7.96875 L 5.515625 -7.96875 L 5.515625 -6.46875 L 3.359375 -6.46875 L 3.359375 -2.640625 C 3.359375 -2.253906 3.453125 -1.957031 3.640625 -1.75 C 3.835938 -1.539062 4.117188 -1.4375 4.484375 -1.4375 C 4.898438 -1.4375 5.25 -1.550781 5.53125 -1.78125 Z M 6.0625 -0.4375 "/></g></g></g><g fill="#004aad" fill-opacity="1"><g transform="translate(85.523218, 30.647343)"><g><path d="M 4.84375 0.109375 C 4.03125 0.109375 3.296875 -0.0664062 2.640625 -0.421875 C 1.992188 -0.773438 1.488281 -1.265625 1.125 -1.890625 C 0.757812 -2.515625 0.578125 -3.222656 0.578125 -4.015625 C 0.578125 -4.804688 0.757812 -5.507812 1.125 -6.125 C 1.488281 -6.75 1.992188 -7.234375 2.640625 -7.578125 C 3.296875 -7.929688 4.03125 -8.109375 4.84375 -8.109375 C 5.664062 -8.109375 6.398438 -7.929688 7.046875 -7.578125 C 7.703125 -7.234375 8.210938 -6.75 8.578125 -6.125 C 8.941406 -5.507812 9.125 -4.804688 9.125 -4.015625 C 9.125 -3.222656 8.941406 -2.515625 8.578125 -1.890625 C 8.210938 -1.265625 7.703125 -0.773438 7.046875 -0.421875 C 6.398438 -0.0664062 5.664062 0.109375 4.84375 0.109375 Z M 4.84375 -1.5 C 5.53125 -1.5 6.097656 -1.726562 6.546875 -2.1875 C 7.003906 -2.65625 7.234375 -3.265625 7.234375 -4.015625 C 7.234375 -4.765625 7.003906 -5.367188 6.546875 -5.828125 C 6.097656 -6.296875 5.53125 -6.53125 4.84375 -6.53125 C 4.144531 -6.53125 3.570312 -6.296875 3.125 -5.828125 C 2.6875 -5.367188 2.46875 -4.765625 2.46875 -4.015625 C 2.46875 -3.265625 2.6875 -2.65625 3.125 -2.1875 C 3.570312 -1.726562 4.144531 -1.5 4.84375 -1.5 Z M 4.84375 -1.5 "/></g></g></g></svg>